<?xml version="1.0" encoding="UTF-8" standalone="no"?>
<svg
   xmlns:dc="http://purl.org/dc/elements/1.1/"
   xmlns:cc="http://creativecommons.org/ns#"
   xmlns:rdf="http://www.w3.org/1999/02/22-rdf-syntax-ns#"
   xmlns:svg="http://www.w3.org/2000/svg"
   xmlns="http://www.w3.org/2000/svg"
   xmlns:sodipodi="http://sodipodi.sourceforge.net/DTD/sodipodi-0.dtd"
   xmlns:inkscape="http://www.inkscape.org/namespaces/inkscape"
   sodipodi:docname="award.svg"
   inkscape:version="1.0 (4035a4fb49, 2020-05-01)"
   id="svg8"
   version="1.1"
   viewBox="0 0 10.583333 10.583334"
   height="40"
   width="40">
  <title
     id="title852">award</title>
  <defs
     id="defs2" />
  <sodipodi:namedview
     inkscape:window-maximized="1"
     inkscape:window-y="-9"
     inkscape:window-x="-9"
     inkscape:window-height="1001"
     inkscape:window-width="1920"
     units="px"
     showgrid="false"
     inkscape:document-rotation="0"
     inkscape:current-layer="layer1"
     inkscape:document-units="px"
     inkscape:cy="10.044636"
     inkscape:cx="32.514087"
     inkscape:zoom="11.2"
     inkscape:pageshadow="2"
     inkscape:pageopacity="0.0"
     borderopacity="1.0"
     bordercolor="#666666"
     pagecolor="#ffffff"
     id="base" />
  <metadata
     id="metadata5">
    <rdf:RDF>
      <cc:Work
         rdf:about="">
        <dc:format>image/svg+xml</dc:format>
        <dc:type
           rdf:resource="http://purl.org/dc/dcmitype/StillImage" />
        <dc:title>award</dc:title>
        <dc:subject>
          <rdf:Bag>
            <rdf:li>trophy win award race</rdf:li>
          </rdf:Bag>
        </dc:subject>
      </cc:Work>
    </rdf:RDF>
  </metadata>
  <g
     id="layer1"
     inkscape:groupmode="layer"
     inkscape:label="Layer 1">
    <g
       inkscape:export-ydpi="52.799999"
       inkscape:export-xdpi="52.799999"
       inkscape:export-filename="D:\WorkSpaces\X.Pi.API\X.Pi.Front\my-app\public\medal_icon30.png"
       transform="matrix(0.21434171,0,0,0.21434171,-37.140967,79.138864)"
       id="g5384"
       style="display:inline;fill:#333333;fill-opacity:1">
      <path
         style="fill:#333333;fill-opacity:1;stroke:none;stroke-width:0.835611px;stroke-linecap:butt;stroke-linejoin:miter;stroke-opacity:1"
         d="m 213.12195,-338.08044 a 19.291792,19.291792 0 0 1 -9.91882,6.66137 l 6.87927,11.50452 1.79809,-8.61878 8.443,2.49573 z m -30.31861,0.0165 -7.19238,12.02636 8.443,-2.49573 1.79809,8.61878 6.88843,-11.51733 a 19.291792,19.291792 0 0 1 -9.93714,-6.63208 z"
         id="path5306"
         inkscape:connector-curvature="0" />
      <path
         style="display:inline;opacity:0.98;fill:#333333;fill-opacity:1;fill-rule:nonzero;stroke:none;stroke-width:1.67366;stroke-linecap:round;stroke-linejoin:round;stroke-miterlimit:4;stroke-dasharray:none;stroke-dashoffset:0;stroke-opacity:1;paint-order:fill markers stroke"
         d="m 197.96631,-369.14592 a 17.22019,17.22019 0 0 0 -17.21923,17.22106 17.22019,17.22019 0 0 0 17.21923,17.21925 17.22019,17.22019 0 0 0 17.22107,-17.21925 17.22019,17.22019 0 0 0 -17.22107,-17.22106 z m 0,5.67627 2.97913,8.66455 9.16076,0.15564 -7.32055,5.50964 2.68432,8.75977 -7.50366,-5.25879 -7.50183,5.25879 2.68432,-8.75977 -7.32055,-5.50964 9.16076,-0.15564 z"
         id="path5302-5"
         inkscape:connector-curvature="0" />
    </g>
  </g>
</svg>
