<?xml version="1.0" encoding="UTF-8" standalone="no"?>
<svg
   xmlns:dc="http://purl.org/dc/elements/1.1/"
   xmlns:cc="http://creativecommons.org/ns#"
   xmlns:rdf="http://www.w3.org/1999/02/22-rdf-syntax-ns#"
   xmlns:svg="http://www.w3.org/2000/svg"
   xmlns="http://www.w3.org/2000/svg"
   xmlns:sodipodi="http://sodipodi.sourceforge.net/DTD/sodipodi-0.dtd"
   xmlns:inkscape="http://www.inkscape.org/namespaces/inkscape"
   width="40"
   height="40"
   viewBox="0 0 10.583333 10.583334"
   version="1.1"
   id="svg8"
   inkscape:version="1.0 (4035a4fb49, 2020-05-01)"
   sodipodi:docname="bulb.svg">
  <title
     id="title1022">bulb</title>
  <defs
     id="defs2">
    <marker
       inkscape:stockid="TriangleInS"
       orient="auto"
       refY="0.0"
       refX="0.0"
       id="TriangleInS"
       style="overflow:visible"
       inkscape:isstock="true">
      <path
         id="path1174"
         d="M 5.77,0.0 L -2.88,5.0 L -2.88,-5.0 L 5.77,0.0 z "
         style="fill-rule:evenodd;stroke:#333333;stroke-width:1pt;stroke-opacity:1;fill:#333333;fill-opacity:1"
         transform="scale(-0.2)" />
    </marker>
    <marker
       inkscape:stockid="Arrow2Mstart"
       orient="auto"
       refY="0.0"
       refX="0.0"
       id="Arrow2Mstart"
       style="overflow:visible"
       inkscape:isstock="true">
      <path
         id="path1059"
         style="fill-rule:evenodd;stroke-width:0.625;stroke-linejoin:round;stroke:#333333;stroke-opacity:1;fill:#333333;fill-opacity:1"
         d="M 8.7185878,4.0337352 L -2.2072895,0.016013256 L 8.7185884,-4.0017078 C 6.9730900,-1.6296469 6.9831476,1.6157441 8.7185878,4.0337352 z "
         transform="scale(0.6) translate(0,0)" />
    </marker>
    <marker
       inkscape:stockid="Arrow2Sstart"
       orient="auto"
       refY="0.0"
       refX="0.0"
       id="Arrow2Sstart"
       style="overflow:visible"
       inkscape:isstock="true">
      <path
         id="path1065"
         style="fill-rule:evenodd;stroke-width:0.625;stroke-linejoin:round;stroke:#333333;stroke-opacity:1;fill:#333333;fill-opacity:1"
         d="M 8.7185878,4.0337352 L -2.2072895,0.016013256 L 8.7185884,-4.0017078 C 6.9730900,-1.6296469 6.9831476,1.6157441 8.7185878,4.0337352 z "
         transform="scale(0.3) translate(-2.3,0)" />
    </marker>
    <marker
       inkscape:stockid="TriangleInM"
       orient="auto"
       refY="0"
       refX="0"
       id="TriangleInM"
       style="overflow:visible"
       inkscape:isstock="true">
      <path
         inkscape:connector-curvature="0"
         id="path4709"
         d="M 5.77,0 -2.88,5 V -5 Z"
         style="fill:#ffffff;fill-opacity:1;fill-rule:evenodd;stroke:#333333;stroke-width:1pt;stroke-opacity:1"
         transform="scale(-0.4)" />
    </marker>
  </defs>
  <sodipodi:namedview
     id="base"
     pagecolor="#ffffff"
     bordercolor="#666666"
     borderopacity="1.0"
     inkscape:pageopacity="0.0"
     inkscape:pageshadow="2"
     inkscape:zoom="5.6"
     inkscape:cx="-2.6200088"
     inkscape:cy="14.427295"
     inkscape:document-units="px"
     inkscape:current-layer="layer1"
     inkscape:document-rotation="0"
     showgrid="false"
     units="px"
     inkscape:window-width="1920"
     inkscape:window-height="1001"
     inkscape:window-x="-9"
     inkscape:window-y="-9"
     inkscape:window-maximized="1" />
  <metadata
     id="metadata5">
    <rdf:RDF>
      <cc:Work
         rdf:about="">
        <dc:format>image/svg+xml</dc:format>
        <dc:type
           rdf:resource="http://purl.org/dc/dcmitype/StillImage" />
        <dc:title>bulb</dc:title>
        <dc:subject>
          <rdf:Bag>
            <rdf:li>automation bulb light</rdf:li>
          </rdf:Bag>
        </dc:subject>
      </cc:Work>
    </rdf:RDF>
  </metadata>
  <g
     inkscape:label="Layer 1"
     inkscape:groupmode="layer"
     id="layer1">
    <g
       transform="matrix(0.09534366,0,0,0.09534366,-28.195628,-65.804545)"
       id="g5965"
       style="display:inline;fill:#333333">
      <path
         style="fill:#333333;stroke:none;stroke-width:0.9375px;stroke-linecap:butt;stroke-linejoin:miter;stroke-opacity:1"
         d="m 351.2282,691.08948 c -5.15174,0.25519 -19.81383,2.1323 -30.6372,17.4115 -9.45098,17.24514 -5.11891,32.50435 1.50695,38.67188 3.81994,2.80933 10.37288,13.18257 12.22046,21.59545 0.43333,3.16352 6.8471,3.71296 16.65528,3.96973 9.98573,-0.02 16.72914,-0.80621 17.16247,-3.96973 1.84758,-8.41288 8.40052,-18.78612 12.22046,-21.59545 6.62586,-6.16753 10.95792,-21.42674 1.50696,-38.67188 -10.82338,-15.2792 -25.56734,-17.26093 -30.63538,-17.4115 z m -2.93335,10.53589 c 1.87581,-0.0531 3.8784,0.28121 6.02967,1.18286 2.21933,1.45784 0.41903,6.29689 -1.92445,6.52954 -8.95534,0.58664 -13.87671,3.84968 -17.32727,9.54163 -1.28896,2.92968 -1.27929,5.85936 -1.50695,8.78906 -0.20484,1.42949 -1.40418,3.36395 -4.43665,3.01391 -1.69209,-0.29289 -3.3192,-1.84173 -3.34716,-3.34716 0.15593,-6.62083 1.86576,-13.18961 8.45397,-19.58863 2.39629,-2.37492 8.43141,-5.96195 14.05884,-6.12121 z"
         id="path5919"
         inkscape:connector-curvature="0"
         sodipodi:nodetypes="cccccccccccccccccc" />
      <g
         id="g5959"
         style="fill:#333333;stroke:none"
         transform="translate(-125.22321,-67.96875)">
        <rect
           ry="4.6875"
           rx="4.6875"
           y="845.91229"
           x="460.01401"
           height="15.033911"
           width="32.672119"
           id="rect5940"
           style="fill:#333333;fill-opacity:0.992157;stroke:none;stroke-width:0.1875;stroke-miterlimit:4;stroke-dasharray:none;stroke-opacity:1" />
        <rect
           ry="4.7001071"
           rx="2.8760457"
           y="853.1723"
           x="466.32697"
           height="15.074346"
           width="20.046188"
           id="rect5940-0"
           style="display:inline;fill:#333333;fill-opacity:0.992157;stroke:none;stroke-width:0.147066;stroke-miterlimit:4;stroke-dasharray:none;stroke-opacity:1" />
      </g>
    </g>
  </g>
</svg>
