<?xml version="1.0" encoding="UTF-8" standalone="no"?>
<svg
   xmlns:dc="http://purl.org/dc/elements/1.1/"
   xmlns:cc="http://creativecommons.org/ns#"
   xmlns:rdf="http://www.w3.org/1999/02/22-rdf-syntax-ns#"
   xmlns:svg="http://www.w3.org/2000/svg"
   xmlns="http://www.w3.org/2000/svg"
   xmlns:sodipodi="http://sodipodi.sourceforge.net/DTD/sodipodi-0.dtd"
   xmlns:inkscape="http://www.inkscape.org/namespaces/inkscape"
   width="40"
   height="40"
   viewBox="0 0 10.583333 10.583334"
   version="1.1"
   id="svg8"
   inkscape:version="1.0 (4035a4fb49, 2020-05-01)"
   sodipodi:docname="crane_hook.svg">
  <title
     id="title1094">crane hook</title>
  <defs
     id="defs2">
    <marker
       inkscape:stockid="TriangleInS"
       orient="auto"
       refY="0.0"
       refX="0.0"
       id="TriangleInS"
       style="overflow:visible"
       inkscape:isstock="true">
      <path
         id="path1174"
         d="M 5.77,0.0 L -2.88,5.0 L -2.88,-5.0 L 5.77,0.0 z "
         style="fill-rule:evenodd;stroke:#333333;stroke-width:1pt;stroke-opacity:1;fill:#333333;fill-opacity:1"
         transform="scale(-0.2)" />
    </marker>
    <marker
       inkscape:stockid="Arrow2Mstart"
       orient="auto"
       refY="0.0"
       refX="0.0"
       id="Arrow2Mstart"
       style="overflow:visible"
       inkscape:isstock="true">
      <path
         id="path1059"
         style="fill-rule:evenodd;stroke-width:0.625;stroke-linejoin:round;stroke:#333333;stroke-opacity:1;fill:#333333;fill-opacity:1"
         d="M 8.7185878,4.0337352 L -2.2072895,0.016013256 L 8.7185884,-4.0017078 C 6.9730900,-1.6296469 6.9831476,1.6157441 8.7185878,4.0337352 z "
         transform="scale(0.6) translate(0,0)" />
    </marker>
    <marker
       inkscape:stockid="Arrow2Sstart"
       orient="auto"
       refY="0.0"
       refX="0.0"
       id="Arrow2Sstart"
       style="overflow:visible"
       inkscape:isstock="true">
      <path
         id="path1065"
         style="fill-rule:evenodd;stroke-width:0.625;stroke-linejoin:round;stroke:#333333;stroke-opacity:1;fill:#333333;fill-opacity:1"
         d="M 8.7185878,4.0337352 L -2.2072895,0.016013256 L 8.7185884,-4.0017078 C 6.9730900,-1.6296469 6.9831476,1.6157441 8.7185878,4.0337352 z "
         transform="scale(0.3) translate(-2.3,0)" />
    </marker>
    <marker
       inkscape:stockid="TriangleInM"
       orient="auto"
       refY="0"
       refX="0"
       id="TriangleInM"
       style="overflow:visible"
       inkscape:isstock="true">
      <path
         inkscape:connector-curvature="0"
         id="path4709"
         d="M 5.77,0 -2.88,5 V -5 Z"
         style="fill:#ffffff;fill-opacity:1;fill-rule:evenodd;stroke:#333333;stroke-width:1pt;stroke-opacity:1"
         transform="scale(-0.4)" />
    </marker>
  </defs>
  <sodipodi:namedview
     id="base"
     pagecolor="#ffffff"
     bordercolor="#666666"
     borderopacity="1.0"
     inkscape:pageopacity="0.0"
     inkscape:pageshadow="2"
     inkscape:zoom="7.919596"
     inkscape:cx="-6.2489223"
     inkscape:cy="34.417836"
     inkscape:document-units="px"
     inkscape:current-layer="layer1"
     inkscape:document-rotation="0"
     showgrid="false"
     units="px"
     inkscape:window-width="1920"
     inkscape:window-height="1001"
     inkscape:window-x="-9"
     inkscape:window-y="-9"
     inkscape:window-maximized="1" />
  <metadata
     id="metadata5">
    <rdf:RDF>
      <cc:Work
         rdf:about="">
        <dc:format>image/svg+xml</dc:format>
        <dc:type
           rdf:resource="http://purl.org/dc/dcmitype/StillImage" />
        <dc:title>crane hook</dc:title>
        <dc:subject>
          <rdf:Bag>
            <rdf:li>automation crane hook</rdf:li>
          </rdf:Bag>
        </dc:subject>
      </cc:Work>
    </rdf:RDF>
  </metadata>
  <g
     inkscape:label="Layer 1"
     inkscape:groupmode="layer"
     id="layer1">
    <g
       transform="translate(1.2937657,-0.21015635)"
       id="g1092">
      <path
         style="fill:#000000;stroke:none;stroke-width:0.0777416px;stroke-linecap:butt;stroke-linejoin:miter;stroke-opacity:1"
         d="M 1.8124357,6.3077244 2.3499254,7.1170002 H 3.6865777 V 8.1963434 L 4.5203587,7.7819931 4.5083061,7.1170002 H 5.8652969 L 6.4027866,6.3077244 h -2.25164 z"
         id="path7268"
         inkscape:connector-curvature="0"
         sodipodi:nodetypes="cccccccccc" />
      <path
         style="fill:#000000;stroke:none;stroke-width:0.0773104px;stroke-linecap:butt;stroke-linejoin:miter;stroke-opacity:1"
         d="M 3.6297042,7.7886265 C 2.761165,8.0343325 2.4460555,8.5649179 2.4301929,9.1750542 2.6299624,11.52547 5.3211843,11.006024 5.4703177,9.2678912 5.5374914,8.6479967 4.9934757,8.5549407 4.8866775,9.1219814 4.6512036,10.149947 3.9325689,9.9980168 3.6943487,9.9246551 3.5074434,9.8775886 3.1399626,9.4053716 3.3783093,8.909711 3.5673384,8.6040671 3.913943,8.593631 4.2402337,8.5315939 4.4389974,8.4295192 4.517752,8.2548372 4.5203587,8.0340712 V 7.7819931 Z"
         id="path7270"
         inkscape:connector-curvature="0"
         sodipodi:nodetypes="cccccccccc" />
      <g
         style="fill:#000000"
         id="g7326"
         transform="matrix(0.08580935,0,0,0.07924986,36.133101,34.192585)">
        <path
           id="path7291"
           d="m -393.91549,-419.69883 -17.24304,32.8125 c -1.92961,3.43979 -1.0051,6.57938 0,9.71007 l 4.42566,7.49447 54.84742,-43.9471 -3.18971,-6.06994 h -19.42016 z m 47.34009,16.17366 -50.13794,40.1715 22.21802,-0.25266 28.46008,0.3241 8.20313,-13.89403 c 1.0051,-3.13069 1.92961,-6.27028 0,-9.71007 z"
           style="fill:#000000;stroke:none;stroke-width:0.9375px;stroke-linecap:butt;stroke-linejoin:miter;stroke-opacity:1"
           inkscape:connector-curvature="0" />
        <rect
           ry="2.8125"
           rx="2.8125"
           y="-428.36368"
           x="-380.53281"
           height="16.33606"
           width="12.07448"
           id="rect7309"
           style="opacity:1;fill:#000000;fill-opacity:1;stroke:none;stroke-width:1.875;stroke-miterlimit:4;stroke-dasharray:none;stroke-opacity:1" />
      </g>
    </g>
  </g>
</svg>
