<?xml version="1.0" encoding="UTF-8" standalone="no"?>
<svg
   xmlns:dc="http://purl.org/dc/elements/1.1/"
   xmlns:cc="http://creativecommons.org/ns#"
   xmlns:rdf="http://www.w3.org/1999/02/22-rdf-syntax-ns#"
   xmlns:svg="http://www.w3.org/2000/svg"
   xmlns="http://www.w3.org/2000/svg"
   xmlns:sodipodi="http://sodipodi.sourceforge.net/DTD/sodipodi-0.dtd"
   xmlns:inkscape="http://www.inkscape.org/namespaces/inkscape"
   sodipodi:docname="dynamite.svg"
   inkscape:version="1.0 (4035a4fb49, 2020-05-01)"
   id="svg8"
   version="1.1"
   viewBox="0 0 10.583333 10.583334"
   height="40"
   width="40">
  <title
     id="title900">shotgun</title>
  <defs
     id="defs2">
    <marker
       inkscape:isstock="true"
       style="overflow:visible"
       id="TriangleInS"
       refX="0.0"
       refY="0.0"
       orient="auto"
       inkscape:stockid="TriangleInS">
      <path
         transform="scale(-0.2)"
         style="fill-rule:evenodd;stroke:#333333;stroke-width:1pt;stroke-opacity:1;fill:#333333;fill-opacity:1"
         d="M 5.77,0.0 L -2.88,5.0 L -2.88,-5.0 L 5.77,0.0 z "
         id="path1174" />
    </marker>
    <marker
       inkscape:isstock="true"
       style="overflow:visible"
       id="Arrow2Mstart"
       refX="0.0"
       refY="0.0"
       orient="auto"
       inkscape:stockid="Arrow2Mstart">
      <path
         transform="scale(0.6) translate(0,0)"
         d="M 8.7185878,4.0337352 L -2.2072895,0.016013256 L 8.7185884,-4.0017078 C 6.9730900,-1.6296469 6.9831476,1.6157441 8.7185878,4.0337352 z "
         style="fill-rule:evenodd;stroke-width:0.625;stroke-linejoin:round;stroke:#333333;stroke-opacity:1;fill:#333333;fill-opacity:1"
         id="path1059" />
    </marker>
    <marker
       inkscape:isstock="true"
       style="overflow:visible"
       id="Arrow2Sstart"
       refX="0.0"
       refY="0.0"
       orient="auto"
       inkscape:stockid="Arrow2Sstart">
      <path
         transform="scale(0.3) translate(-2.3,0)"
         d="M 8.7185878,4.0337352 L -2.2072895,0.016013256 L 8.7185884,-4.0017078 C 6.9730900,-1.6296469 6.9831476,1.6157441 8.7185878,4.0337352 z "
         style="fill-rule:evenodd;stroke-width:0.625;stroke-linejoin:round;stroke:#333333;stroke-opacity:1;fill:#333333;fill-opacity:1"
         id="path1065" />
    </marker>
    <marker
       inkscape:isstock="true"
       style="overflow:visible"
       id="TriangleInM"
       refX="0"
       refY="0"
       orient="auto"
       inkscape:stockid="TriangleInM">
      <path
         transform="scale(-0.4)"
         style="fill:#ffffff;fill-opacity:1;fill-rule:evenodd;stroke:#333333;stroke-width:1pt;stroke-opacity:1"
         d="M 5.77,0 -2.88,5 V -5 Z"
         id="path4709"
         inkscape:connector-curvature="0" />
    </marker>
  </defs>
  <sodipodi:namedview
     inkscape:window-maximized="1"
     inkscape:window-y="-9"
     inkscape:window-x="-9"
     inkscape:window-height="1001"
     inkscape:window-width="1920"
     units="px"
     showgrid="false"
     inkscape:document-rotation="0"
     inkscape:current-layer="layer1"
     inkscape:document-units="px"
     inkscape:cy="39.587839"
     inkscape:cx="-25.108362"
     inkscape:zoom="3.959798"
     inkscape:pageshadow="2"
     inkscape:pageopacity="0.0"
     borderopacity="1.0"
     bordercolor="#666666"
     pagecolor="#ffffff"
     id="base" />
  <metadata
     id="metadata5">
    <rdf:RDF>
      <cc:Work
         rdf:about="">
        <dc:format>image/svg+xml</dc:format>
        <dc:type
           rdf:resource="http://purl.org/dc/dcmitype/StillImage" />
        <dc:title>shotgun</dc:title>
        <dc:subject>
          <rdf:Bag>
            <rdf:li>shotgun gun weapon</rdf:li>
          </rdf:Bag>
        </dc:subject>
      </cc:Work>
    </rdf:RDF>
  </metadata>
  <g
     id="layer1"
     inkscape:groupmode="layer"
     inkscape:label="Layer 1">
    <g
       transform="translate(0.0243109,0.04100268)"
       id="g905">
      <path
         style="fill:#333333;fill-opacity:1;stroke:none;stroke-width:0.0235651;stroke-linecap:round;stroke-miterlimit:4;stroke-dasharray:none;stroke-opacity:1"
         d="m 10.182136,6.8045771 c 0.13934,0.1393406 0.162109,0.340957 0.05101,0.4520531 L 9.5409358,7.9488453 C 9.4298372,8.0599404 9.2282213,8.03717 9.0888809,7.8978296 L 8.3481524,7.1571015 9.441407,6.0638488 Z M 8.7759336,5.3983759 7.6826792,6.4916286 4.135464,2.9444125 5.2287185,1.8511602 Z M 4.5632444,1.1856866 3.4699899,2.2789393 2.9015471,1.7104942 C 2.7622066,1.5711538 2.7394671,1.3695686 2.8505632,1.2584729 L 3.5427777,0.56625764 c 0.111096,-0.1110957 0.3126801,-0.088357 0.4520205,0.050983 z M 8.6076147,7.749301 c 0.1393404,0.1393404 0.1620455,0.3409573 0.050949,0.4520529 L 7.9663505,8.8935696 C 7.8552522,9.0046637 7.6536694,8.9819272 7.5143289,8.8425868 L 7.0885,8.4167561 8.1817859,7.3234703 Z M 7.5163125,6.6579976 6.4230259,7.7512831 2.8758107,4.2040673 3.9690965,3.1107815 Z M 3.3036232,2.4453085 2.2103376,3.538594 1.3269947,2.6552511 C 1.1876543,2.5159105 1.1648824,2.3142921 1.2759783,2.2031971 L 1.9681919,1.5109817 c 0.1110986,-0.111095 0.3127482,-0.088357 0.4520887,0.050984 z m 4.3295376,6.836951 c 0.1393404,0.139341 0.162076,0.340991 0.050982,0.452087 L 6.9919582,10.426528 c -0.1110899,0.111097 -0.3127432,0.08836 -0.452083,-0.05098 L 5.8347918,9.6704635 6.9280779,8.5771772 Z M 6.2626045,7.9117048 5.1693186,9.004991 1.6221026,5.4577747 2.7153885,4.3644885 Z M 2.0499152,3.6990154 0.95662936,4.7923016 0.35253801,4.1882102 C 0.21319755,4.0488698 0.19049287,3.8472515 0.30158622,3.736156 L 0.99376875,3.043973 C 1.1048672,2.9328785 1.3064836,2.955583 1.4458241,3.094923 Z"
         id="rect6679"
         inkscape:connector-curvature="0" />
      <rect
         style="fill:#333333;fill-opacity:1;stroke:none;stroke-width:0.023255;stroke-linecap:round;stroke-miterlimit:4;stroke-dasharray:none;stroke-opacity:1"
         id="rect6702-1"
         width="0.63021463"
         height="5.854362"
         x="-10.821007"
         y="-2.7303948"
         rx="0.35101858"
         ry="0.27986571"
         transform="matrix(-0.70710677,-0.70710679,-0.70710679,0.70710677,0,0)" />
      <rect
         style="fill:#333333;fill-opacity:1;stroke:none;stroke-width:0.023255;stroke-linecap:round;stroke-miterlimit:4;stroke-dasharray:none;stroke-opacity:1"
         id="rect6702-1-1"
         width="0.63021463"
         height="5.854362"
         x="-4.8507767"
         y="-2.727411"
         rx="0.35101858"
         ry="0.27986571"
         transform="matrix(-0.70710677,-0.70710679,-0.70710679,0.70710677,0,0)" />
      <path
         style="fill:none;fill-opacity:1;stroke:#333333;stroke-width:0.444623;stroke-linecap:round;stroke-linejoin:miter;stroke-miterlimit:4;stroke-dasharray:none;stroke-opacity:1"
         d="M 1.5745211,1.8281868 C 1.2856163,1.4785959 1.1045961,1.1158483 1.2720188,0.71060634 L 1.5507384,0.22666031"
         id="path6753"
         inkscape:connector-curvature="0"
         sodipodi:nodetypes="ccc" />
    </g>
  </g>
</svg>
