<?xml version="1.0" encoding="UTF-8" standalone="no"?>
<svg
   xmlns:dc="http://purl.org/dc/elements/1.1/"
   xmlns:cc="http://creativecommons.org/ns#"
   xmlns:rdf="http://www.w3.org/1999/02/22-rdf-syntax-ns#"
   xmlns:svg="http://www.w3.org/2000/svg"
   xmlns="http://www.w3.org/2000/svg"
   xmlns:sodipodi="http://sodipodi.sourceforge.net/DTD/sodipodi-0.dtd"
   xmlns:inkscape="http://www.inkscape.org/namespaces/inkscape"
   width="40"
   height="40"
   viewBox="0 0 10.583333 10.583334"
   version="1.1"
   id="svg8"
   inkscape:version="1.0 (4035a4fb49, 2020-05-01)"
   sodipodi:docname="factory.svg">
  <title
     id="title968">factory</title>
  <defs
     id="defs2">
    <marker
       inkscape:stockid="TriangleInS"
       orient="auto"
       refY="0.0"
       refX="0.0"
       id="TriangleInS"
       style="overflow:visible"
       inkscape:isstock="true">
      <path
         id="path1174"
         d="M 5.77,0.0 L -2.88,5.0 L -2.88,-5.0 L 5.77,0.0 z "
         style="fill-rule:evenodd;stroke:#333333;stroke-width:1pt;stroke-opacity:1;fill:#333333;fill-opacity:1"
         transform="scale(-0.2)" />
    </marker>
    <marker
       inkscape:stockid="Arrow2Mstart"
       orient="auto"
       refY="0.0"
       refX="0.0"
       id="Arrow2Mstart"
       style="overflow:visible"
       inkscape:isstock="true">
      <path
         id="path1059"
         style="fill-rule:evenodd;stroke-width:0.625;stroke-linejoin:round;stroke:#333333;stroke-opacity:1;fill:#333333;fill-opacity:1"
         d="M 8.7185878,4.0337352 L -2.2072895,0.016013256 L 8.7185884,-4.0017078 C 6.9730900,-1.6296469 6.9831476,1.6157441 8.7185878,4.0337352 z "
         transform="scale(0.6) translate(0,0)" />
    </marker>
    <marker
       inkscape:stockid="Arrow2Sstart"
       orient="auto"
       refY="0.0"
       refX="0.0"
       id="Arrow2Sstart"
       style="overflow:visible"
       inkscape:isstock="true">
      <path
         id="path1065"
         style="fill-rule:evenodd;stroke-width:0.625;stroke-linejoin:round;stroke:#333333;stroke-opacity:1;fill:#333333;fill-opacity:1"
         d="M 8.7185878,4.0337352 L -2.2072895,0.016013256 L 8.7185884,-4.0017078 C 6.9730900,-1.6296469 6.9831476,1.6157441 8.7185878,4.0337352 z "
         transform="scale(0.3) translate(-2.3,0)" />
    </marker>
    <marker
       inkscape:stockid="TriangleInM"
       orient="auto"
       refY="0"
       refX="0"
       id="TriangleInM"
       style="overflow:visible"
       inkscape:isstock="true">
      <path
         inkscape:connector-curvature="0"
         id="path4709"
         d="M 5.77,0 -2.88,5 V -5 Z"
         style="fill:#ffffff;fill-opacity:1;fill-rule:evenodd;stroke:#333333;stroke-width:1pt;stroke-opacity:1"
         transform="scale(-0.4)" />
    </marker>
  </defs>
  <sodipodi:namedview
     id="base"
     pagecolor="#ffffff"
     bordercolor="#666666"
     borderopacity="1.0"
     inkscape:pageopacity="0.0"
     inkscape:pageshadow="2"
     inkscape:zoom="11.2"
     inkscape:cx="8.8628047"
     inkscape:cy="19.138586"
     inkscape:document-units="px"
     inkscape:current-layer="layer1"
     inkscape:document-rotation="0"
     showgrid="false"
     units="px"
     inkscape:window-width="1920"
     inkscape:window-height="1001"
     inkscape:window-x="-9"
     inkscape:window-y="-9"
     inkscape:window-maximized="1" />
  <metadata
     id="metadata5">
    <rdf:RDF>
      <cc:Work
         rdf:about="">
        <dc:format>image/svg+xml</dc:format>
        <dc:type
           rdf:resource="http://purl.org/dc/dcmitype/StillImage" />
        <dc:title>factory</dc:title>
        <dc:subject>
          <rdf:Bag>
            <rdf:li>automation factory</rdf:li>
          </rdf:Bag>
        </dc:subject>
      </cc:Work>
    </rdf:RDF>
  </metadata>
  <g
     inkscape:label="Layer 1"
     inkscape:groupmode="layer"
     id="layer1">
    <g
       transform="matrix(0.20243584,0,0,0.20243584,-31.42412,30.021096)"
       id="g5237"
       style="display:inline;fill:#000000">
      <path
         style="opacity:1;fill:#000000;fill-opacity:1;stroke:none;stroke-width:0.993292;stroke-miterlimit:4;stroke-dasharray:none;stroke-opacity:1"
         d="m 185.14231,-140.27606 c -0.48777,0.0268 -0.94331,0.24057 -1.15606,0.43761 l -9.9713,8.79405 h -2.68712 v -6.79445 c -0.0202,-3.05197 -2.31604,-2.42035 -2.88337,-1.89491 l -9.91107,8.74171 c -1.8636,0.30334 -3.28557,2.023 -3.28557,4.11854 v 22.52326 c 0,2.31089 1.726,4.17088 3.8704,4.17088 h 33.73185 c -0.0973,-0.84691 -0.15932,-1.7145 -0.15932,-2.60473 v -8.56162 -19.69868 h -5.82114 v -6.89915 c -0.0126,-1.90749 -0.91431,-2.37723 -1.7273,-2.33251 z m -23.07467,13.6224 h 2.46174 c 0.42889,0 0.77331,0.37325 0.77331,0.83543 v 4.81161 c 0,0.46218 -0.34442,0.83334 -0.77331,0.83334 h -2.46174 c -0.42888,0 -0.7733,-0.37116 -0.7733,-0.83334 v -4.81161 c 0,-0.46218 0.34442,-0.83543 0.7733,-0.83543 z m 10.19475,0 h 2.46174 c 0.42887,0 0.7733,0.37325 0.7733,0.83543 v 4.81161 c 0,0.46218 -0.34443,0.83334 -0.7733,0.83334 h -2.46174 c -0.42889,0 -0.77329,-0.37116 -0.77329,-0.83334 v -4.81161 c 0,-0.46218 0.3444,-0.83543 0.77329,-0.83543 z m 10.19475,0 h 2.46174 c 0.42888,0 0.77329,0.37325 0.77329,0.83543 v 4.81161 c 0,0.46218 -0.34441,0.83334 -0.77329,0.83334 h -2.46174 c -0.42888,0 -0.7733,-0.37116 -0.7733,-0.83334 v -4.81161 c 0,-0.46218 0.34442,-0.83543 0.7733,-0.83543 z m -20.3895,11.09935 h 2.46174 c 0.42889,0 0.77331,0.37116 0.77331,0.83335 v 4.8116 c 0,0.46218 -0.34442,0.83544 -0.77331,0.83544 h -2.46174 c -0.42888,0 -0.7733,-0.37326 -0.7733,-0.83544 v -4.8116 c 0,-0.46219 0.34442,-0.83335 0.7733,-0.83335 z m 10.19475,0 h 2.46174 c 0.42887,0 0.7733,0.37116 0.7733,0.83335 v 4.8116 c 0,0.46218 -0.34443,0.83544 -0.7733,0.83544 h -2.46174 c -0.42889,0 -0.77329,-0.37326 -0.77329,-0.83544 v -4.8116 c 0,-0.46219 0.3444,-0.83335 0.77329,-0.83335 z m 10.19475,0 h 2.46174 c 0.42888,0 0.77329,0.37116 0.77329,0.83335 v 4.8116 c 0,0.46218 -0.34441,0.83544 -0.77329,0.83544 h -2.46174 c -0.42888,0 -0.7733,-0.37326 -0.7733,-0.83544 v -4.8116 c 0,-0.46219 0.34442,-0.83335 0.7733,-0.83335 z"
         id="rect5602"
         inkscape:connector-curvature="0" />
      <path
         style="fill:#000000;fill-opacity:1;stroke:none;stroke-width:0.318871px;stroke-linecap:butt;stroke-linejoin:miter;stroke-opacity:1"
         d="m 197.81645,-144.13875 c -0.8376,0.0152 -1.48429,0.34211 -1.74383,1.3004 l -4.43659,42.62176 3.28629,0.0372 h 5.3579 5.35791 c 1.63095,-0.004 1.8902,-0.96511 1.85032,-2.04027 l -3.00062,-40.61871 c -0.2966,-1.09518 -1.09872,-1.36559 -2.11377,-1.28856 h -2.09384 -2.09383 c -0.12689,-0.01 -0.25029,-0.014 -0.36994,-0.0118 z"
         id="path5058"
         inkscape:connector-curvature="0"
         sodipodi:nodetypes="ccccccccccccc" />
    </g>
  </g>
</svg>
