<?xml version="1.0" encoding="UTF-8" standalone="no"?>
<svg
   xmlns:dc="http://purl.org/dc/elements/1.1/"
   xmlns:cc="http://creativecommons.org/ns#"
   xmlns:rdf="http://www.w3.org/1999/02/22-rdf-syntax-ns#"
   xmlns:svg="http://www.w3.org/2000/svg"
   xmlns="http://www.w3.org/2000/svg"
   xmlns:sodipodi="http://sodipodi.sourceforge.net/DTD/sodipodi-0.dtd"
   xmlns:inkscape="http://www.inkscape.org/namespaces/inkscape"
   width="40"
   height="40"
   viewBox="0 0 10.583333 10.583334"
   version="1.1"
   id="svg8"
   inkscape:version="1.0 (4035a4fb49, 2020-05-01)"
   sodipodi:docname="gague.svg">
  <title
     id="title983">electric engine</title>
  <defs
     id="defs2">
    <marker
       inkscape:stockid="TriangleInS"
       orient="auto"
       refY="0.0"
       refX="0.0"
       id="TriangleInS"
       style="overflow:visible"
       inkscape:isstock="true">
      <path
         id="path1174"
         d="M 5.77,0.0 L -2.88,5.0 L -2.88,-5.0 L 5.77,0.0 z "
         style="fill-rule:evenodd;stroke:#333333;stroke-width:1pt;stroke-opacity:1;fill:#333333;fill-opacity:1"
         transform="scale(-0.2)" />
    </marker>
    <marker
       inkscape:stockid="Arrow2Mstart"
       orient="auto"
       refY="0.0"
       refX="0.0"
       id="Arrow2Mstart"
       style="overflow:visible"
       inkscape:isstock="true">
      <path
         id="path1059"
         style="fill-rule:evenodd;stroke-width:0.625;stroke-linejoin:round;stroke:#333333;stroke-opacity:1;fill:#333333;fill-opacity:1"
         d="M 8.7185878,4.0337352 L -2.2072895,0.016013256 L 8.7185884,-4.0017078 C 6.9730900,-1.6296469 6.9831476,1.6157441 8.7185878,4.0337352 z "
         transform="scale(0.6) translate(0,0)" />
    </marker>
    <marker
       inkscape:stockid="Arrow2Sstart"
       orient="auto"
       refY="0.0"
       refX="0.0"
       id="Arrow2Sstart"
       style="overflow:visible"
       inkscape:isstock="true">
      <path
         id="path1065"
         style="fill-rule:evenodd;stroke-width:0.625;stroke-linejoin:round;stroke:#333333;stroke-opacity:1;fill:#333333;fill-opacity:1"
         d="M 8.7185878,4.0337352 L -2.2072895,0.016013256 L 8.7185884,-4.0017078 C 6.9730900,-1.6296469 6.9831476,1.6157441 8.7185878,4.0337352 z "
         transform="scale(0.3) translate(-2.3,0)" />
    </marker>
    <marker
       inkscape:stockid="TriangleInM"
       orient="auto"
       refY="0"
       refX="0"
       id="TriangleInM"
       style="overflow:visible"
       inkscape:isstock="true">
      <path
         inkscape:connector-curvature="0"
         id="path4709"
         d="M 5.77,0 -2.88,5 V -5 Z"
         style="fill:#ffffff;fill-opacity:1;fill-rule:evenodd;stroke:#333333;stroke-width:1pt;stroke-opacity:1"
         transform="scale(-0.4)" />
    </marker>
  </defs>
  <sodipodi:namedview
     id="base"
     pagecolor="#ffffff"
     bordercolor="#666666"
     borderopacity="1.0"
     inkscape:pageopacity="0.0"
     inkscape:pageshadow="2"
     inkscape:zoom="7.919596"
     inkscape:cx="-8.3967398"
     inkscape:cy="20.752162"
     inkscape:document-units="px"
     inkscape:current-layer="layer1"
     inkscape:document-rotation="0"
     showgrid="false"
     units="px"
     inkscape:window-width="1920"
     inkscape:window-height="1001"
     inkscape:window-x="-9"
     inkscape:window-y="-9"
     inkscape:window-maximized="1" />
  <metadata
     id="metadata5">
    <rdf:RDF>
      <cc:Work
         rdf:about="">
        <dc:format>image/svg+xml</dc:format>
        <dc:type
           rdf:resource="http://purl.org/dc/dcmitype/StillImage" />
        <dc:title>electric engine</dc:title>
        <dc:subject>
          <rdf:Bag>
            <rdf:li>automation electric engine</rdf:li>
          </rdf:Bag>
        </dc:subject>
      </cc:Work>
    </rdf:RDF>
  </metadata>
  <g
     inkscape:label="Layer 1"
     inkscape:groupmode="layer"
     id="layer1">
    <g
       style="fill:#333333"
       transform="matrix(0.62744293,0,0,0.62744293,71.976067,-140.20405)"
       id="g2747">
      <g
         id="g5438"
         transform="matrix(0.1050488,0,0,0.1050488,-120.60567,226.25466)"
         style="display:inline;fill:#333333">
        <path
           sodipodi:nodetypes="ccccccccccccccccccscsssscs"
           id="path5242-2"
           transform="scale(0.9375)"
           d="M 145.44727,-5.3828125 C 99.257263,-5.3319426 61.414492,31.310236 59.875,77.474609 h 66.48438 c -3.26232,-7.593018 -1.57124,-16.407365 4.26953,-22.253906 5.44817,-5.43289 13.50931,-7.299561 20.79101,-4.814453 l 28.85156,-23.400391 c 5.01246,-2.971534 9.42418,2.687137 7.14258,7.142579 l -23.39258,28.839843 c 1.60927,4.732798 1.40677,9.894162 -0.56836,14.486328 h 67.60547 C 229.51858,31.295114 191.65243,-5.3529769 145.44727,-5.3828125 Z m -2.98438,9.9570313 c 0.62332,0.013714 1.24642,0.035851 1.86914,0.066406 V 39.474609 c -0.62184,-0.05183 -1.24523,-0.0831 -1.86914,-0.09375 -15.23899,0.01704 -27.73366,12.087104 -28.27734,27.316407 H 73.705078 C 77.328213,31.434437 107.01444,4.6127748 142.46289,4.5742188 Z m 2.55469,57.6679692 c -1.963,-0.02843 -3.85395,0.738796 -5.24219,2.126953 -2.83661,2.837064 -2.83661,7.436373 0,10.273437 2.83729,2.837913 7.4381,2.837913 10.27539,0 2.83661,-2.837064 2.83661,-7.436373 0,-10.273437 -1.33655,-1.336473 -3.14134,-2.099445 -5.03125,-2.126953 h -0.002 z"
           style="display:inline;fill:#333333;fill-opacity:0.992157;stroke:none;stroke-width:1;stroke-opacity:1"
           inkscape:connector-curvature="0" />
        <path
           id="rect5398"
           transform="scale(0.9375)"
           d="m 100.39258,95.515625 c -2.730923,0 -4.929689,2.253576 -4.929689,5.052735 v 14.13867 c 0,2.79916 2.198766,5.05274 4.929689,5.05274 h 90.14648 c 2.73092,0 4.92969,-2.25358 4.92969,-5.05274 v -14.13867 c 0,-2.799159 -2.19877,-5.052735 -4.92969,-5.052735 h -21.8125 A 33.188336,33.188336 0 0 1 145.02539,105.51758 33.188336,33.188336 0 0 1 121.28711,95.515625 Z"
           style="fill:#333333;fill-opacity:0.992157;stroke:none;stroke-width:0.831778;stroke-opacity:1"
           inkscape:connector-curvature="0" />
        <rect
           transform="rotate(30)"
           ry="1.875"
           rx="1.875"
           y="-12.1087"
           x="91.500946"
           height="9.7069359"
           width="17.756578"
           id="rect5398-9"
           style="display:inline;fill:#333333;fill-opacity:0.992157;stroke:none;stroke-width:0.221778;stroke-opacity:1" />
        <rect
           transform="rotate(60)"
           ry="1.875"
           rx="1.875"
           y="-86.3993"
           x="65.800301"
           height="9.7069359"
           width="17.756578"
           id="rect5398-9-1"
           style="display:inline;fill:#333333;fill-opacity:0.992157;stroke:none;stroke-width:0.221778;stroke-opacity:1" />
      </g>
    </g>
  </g>
</svg>
