<?xml version="1.0" encoding="UTF-8" standalone="no"?>
<svg
   xmlns:dc="http://purl.org/dc/elements/1.1/"
   xmlns:cc="http://creativecommons.org/ns#"
   xmlns:rdf="http://www.w3.org/1999/02/22-rdf-syntax-ns#"
   xmlns:svg="http://www.w3.org/2000/svg"
   xmlns="http://www.w3.org/2000/svg"
   xmlns:sodipodi="http://sodipodi.sourceforge.net/DTD/sodipodi-0.dtd"
   xmlns:inkscape="http://www.inkscape.org/namespaces/inkscape"
   width="40"
   height="40"
   viewBox="0 0 10.583333 10.583334"
   version="1.1"
   id="svg8"
   inkscape:version="1.0 (4035a4fb49, 2020-05-01)"
   sodipodi:docname="location.svg">
  <title
     id="title858">location</title>
  <defs
     id="defs2" />
  <sodipodi:namedview
     id="base"
     pagecolor="#ffffff"
     bordercolor="#666666"
     borderopacity="1.0"
     inkscape:pageopacity="0.0"
     inkscape:pageshadow="2"
     inkscape:zoom="7.919596"
     inkscape:cx="31.625789"
     inkscape:cy="9.1311843"
     inkscape:document-units="px"
     inkscape:current-layer="layer1"
     inkscape:document-rotation="0"
     showgrid="false"
     units="px"
     inkscape:window-width="1920"
     inkscape:window-height="1001"
     inkscape:window-x="-9"
     inkscape:window-y="-9"
     inkscape:window-maximized="1" />
  <metadata
     id="metadata5">
    <rdf:RDF>
      <cc:Work
         rdf:about="">
        <dc:format>image/svg+xml</dc:format>
        <dc:type
           rdf:resource="http://purl.org/dc/dcmitype/StillImage" />
        <dc:title>location</dc:title>
        <dc:subject>
          <rdf:Bag>
            <rdf:li>location geo navigation</rdf:li>
          </rdf:Bag>
        </dc:subject>
      </cc:Work>
    </rdf:RDF>
  </metadata>
  <g
     inkscape:label="Layer 1"
     inkscape:groupmode="layer"
     id="layer1">
    <g
       style="fill:#333333;fill-opacity:0.980392"
       transform="matrix(0.86546798,0,0,0.86546798,-5.942333,-167.22306)"
       id="g2685">
      <path
         id="path6913"
         d="m 12.980208,193.25898 a 3.725002,3.725002 0 0 0 -3.7249371,3.72503 3.725002,3.725002 0 0 0 0.5188556,1.88826 l -0.00292,-5.8e-4 c 0.00727,0.0106 0.014704,0.0212 0.021996,0.0318 a 3.725002,3.725002 0 0 0 0.3121315,0.44605 c 0.919367,1.29411 1.919443,2.55995 2.541428,3.95814 0.089,0.1862 0.178853,0.37035 0.333446,0.40897 0.154594,-0.0386 0.244547,-0.22277 0.333544,-0.40897 0.623015,-1.40051 1.625382,-2.66822 2.546003,-3.96456 a 3.725002,3.725002 0 0 0 0.31213,-0.44635 c 0.0058,-0.008 0.01168,-0.0167 0.01742,-0.0251 l -0.0033,5.8e-4 a 3.725002,3.725002 0 0 0 0.519245,-1.88826 3.725002,3.725002 0 0 0 -3.725035,-3.72503 z m 0,1.56046 a 2.1645281,2.1645281 0 0 1 2.164575,2.16457 2.1645281,2.1645281 0 0 1 -2.164575,2.16448 2.1645281,2.1645281 0 0 1 -2.164477,-2.16448 2.1645281,2.1645281 0 0 1 2.164477,-2.16457 z"
         style="fill:#333333;fill-opacity:0.980392;stroke:none;stroke-width:0.0498319px;stroke-linecap:butt;stroke-linejoin:miter;stroke-opacity:1"
         inkscape:connector-curvature="0" />
      <circle
         r="1.132602"
         cy="196.98399"
         cx="12.980257"
         id="path6863-5-0"
         style="display:inline;fill:#333333;fill-opacity:0.980392;stroke:none;stroke-width:0.101929;stroke-miterlimit:4;stroke-dasharray:none;stroke-opacity:1" />
      <path
         sodipodi:nodetypes="ccccccccccccccccc"
         inkscape:connector-curvature="0"
         id="path6939"
         d="m 11.210785,202.31525 c -0.528538,0.20059 -1.07515,0.36515 -1.3971437,0.97883 -0.1844111,0.38235 -0.1715654,0.79864 0.3292607,1.29913 0.795437,0.57903 1.763533,0.78137 2.812098,0.80812 l -9.9e-5,0.002 c 0.0089,-2e-4 0.01774,-5.8e-4 0.02667,-7.8e-4 0.0089,2e-4 0.01773,6.1e-4 0.02667,7.8e-4 l -10e-5,-0.002 c 1.048566,-0.0267 2.016661,-0.22909 2.812098,-0.80812 0.500827,-0.50049 0.513672,-0.91678 0.329261,-1.29913 -0.321993,-0.61368 -0.868605,-0.77824 -1.397143,-0.97883 l -0.320307,0.52499 c 0.469848,0.17339 1.045217,0.26642 1.041118,0.80091 -0.102583,0.668 -1.485135,0.92018 -2.491597,0.93435 -0.850738,-0.01 -2.389015,-0.26635 -2.491597,-0.93435 -0.0041,-0.53449 0.571269,-0.62752 1.041118,-0.80091 z"
         style="fill:#333333;fill-opacity:0.980392;stroke:none;stroke-width:0.0498319px;stroke-linecap:butt;stroke-linejoin:miter;stroke-opacity:1" />
    </g>
  </g>
</svg>
