<?xml version="1.0" encoding="UTF-8" standalone="no"?>
<svg
   xmlns:dc="http://purl.org/dc/elements/1.1/"
   xmlns:cc="http://creativecommons.org/ns#"
   xmlns:rdf="http://www.w3.org/1999/02/22-rdf-syntax-ns#"
   xmlns:svg="http://www.w3.org/2000/svg"
   xmlns="http://www.w3.org/2000/svg"
   xmlns:sodipodi="http://sodipodi.sourceforge.net/DTD/sodipodi-0.dtd"
   xmlns:inkscape="http://www.inkscape.org/namespaces/inkscape"
   width="40"
   height="40"
   viewBox="0 0 10.583333 10.583334"
   version="1.1"
   id="svg8"
   inkscape:version="1.0 (4035a4fb49, 2020-05-01)"
   sodipodi:docname="nuclear_reactor.svg">
  <title
     id="title983">electric engine</title>
  <defs
     id="defs2">
    <marker
       inkscape:stockid="TriangleInS"
       orient="auto"
       refY="0.0"
       refX="0.0"
       id="TriangleInS"
       style="overflow:visible"
       inkscape:isstock="true">
      <path
         id="path1174"
         d="M 5.77,0.0 L -2.88,5.0 L -2.88,-5.0 L 5.77,0.0 z "
         style="fill-rule:evenodd;stroke:#333333;stroke-width:1pt;stroke-opacity:1;fill:#333333;fill-opacity:1"
         transform="scale(-0.2)" />
    </marker>
    <marker
       inkscape:stockid="Arrow2Mstart"
       orient="auto"
       refY="0.0"
       refX="0.0"
       id="Arrow2Mstart"
       style="overflow:visible"
       inkscape:isstock="true">
      <path
         id="path1059"
         style="fill-rule:evenodd;stroke-width:0.625;stroke-linejoin:round;stroke:#333333;stroke-opacity:1;fill:#333333;fill-opacity:1"
         d="M 8.7185878,4.0337352 L -2.2072895,0.016013256 L 8.7185884,-4.0017078 C 6.9730900,-1.6296469 6.9831476,1.6157441 8.7185878,4.0337352 z "
         transform="scale(0.6) translate(0,0)" />
    </marker>
    <marker
       inkscape:stockid="Arrow2Sstart"
       orient="auto"
       refY="0.0"
       refX="0.0"
       id="Arrow2Sstart"
       style="overflow:visible"
       inkscape:isstock="true">
      <path
         id="path1065"
         style="fill-rule:evenodd;stroke-width:0.625;stroke-linejoin:round;stroke:#333333;stroke-opacity:1;fill:#333333;fill-opacity:1"
         d="M 8.7185878,4.0337352 L -2.2072895,0.016013256 L 8.7185884,-4.0017078 C 6.9730900,-1.6296469 6.9831476,1.6157441 8.7185878,4.0337352 z "
         transform="scale(0.3) translate(-2.3,0)" />
    </marker>
    <marker
       inkscape:stockid="TriangleInM"
       orient="auto"
       refY="0"
       refX="0"
       id="TriangleInM"
       style="overflow:visible"
       inkscape:isstock="true">
      <path
         inkscape:connector-curvature="0"
         id="path4709"
         d="M 5.77,0 -2.88,5 V -5 Z"
         style="fill:#ffffff;fill-opacity:1;fill-rule:evenodd;stroke:#333333;stroke-width:1pt;stroke-opacity:1"
         transform="scale(-0.4)" />
    </marker>
  </defs>
  <sodipodi:namedview
     id="base"
     pagecolor="#ffffff"
     bordercolor="#666666"
     borderopacity="1.0"
     inkscape:pageopacity="0.0"
     inkscape:pageshadow="2"
     inkscape:zoom="7.919596"
     inkscape:cx="-8.3967398"
     inkscape:cy="20.752162"
     inkscape:document-units="px"
     inkscape:current-layer="layer1"
     inkscape:document-rotation="0"
     showgrid="false"
     units="px"
     inkscape:window-width="1920"
     inkscape:window-height="1001"
     inkscape:window-x="-9"
     inkscape:window-y="-9"
     inkscape:window-maximized="1" />
  <metadata
     id="metadata5">
    <rdf:RDF>
      <cc:Work
         rdf:about="">
        <dc:format>image/svg+xml</dc:format>
        <dc:type
           rdf:resource="http://purl.org/dc/dcmitype/StillImage" />
        <dc:title>electric engine</dc:title>
        <dc:subject>
          <rdf:Bag>
            <rdf:li>automation electric engine</rdf:li>
          </rdf:Bag>
        </dc:subject>
      </cc:Work>
    </rdf:RDF>
  </metadata>
  <g
     inkscape:label="Layer 1"
     inkscape:groupmode="layer"
     id="layer1">
    <g
       transform="translate(13.988737,-0.7720107)"
       id="g1083">
      <path
         style="display:inline;fill:none;stroke:#333333;stroke-width:0.768996;stroke-linecap:butt;stroke-linejoin:miter;stroke-miterlimit:4;stroke-dasharray:none;stroke-opacity:1"
         d="m -11.442281,1.6222709 c -0.145484,0 -0.26261,0.1171213 -0.26261,0.2626094 v 0.8370632 c 0,0.1454882 0.117126,0.262601 0.26261,0.262601 h 0.231065 c -0.04875,0.4116601 -0.09447,0.8273392 -0.141305,1.2415153 l -0.07361,0.6331889 c -0.232098,1.8667652 -0.579723,3.5812911 -1.655672,4.3376632 h -0.255939 c -0.145486,0 -0.262611,0.1171296 -0.262611,0.2626095 v 0.7829446 c 0,0.145497 0.117125,0.262618 0.262611,0.262618 h 9.2813455 c 0.1454839,0 0.2626085,-0.117121 0.2626085,-0.262618 V 9.4595214 c 0,-0.1454799 -0.1171246,-0.2626095 -0.2626085,-0.2626095 H -4.3123374 C -5.7444558,8.1901374 -5.886731,5.4860184 -6.1829124,2.9845445 h 0.2310679 c 0.1454824,0 0.262607,-0.1171128 0.262607,-0.262601 V 1.8848803 c 0,-0.1454881 -0.1171246,-0.2626094 -0.262607,-0.2626094 z"
         id="path6440"
         inkscape:connector-curvature="0"
         sodipodi:nodetypes="ssssccccssssssssccsssss" />
      <g
         id="g1077"
         style="fill:#333333"
         transform="matrix(0.92821564,0,0,0.92821564,-1.6622234,1.1651111)">
        <ellipse
           ry="0.47295597"
           rx="0.47862306"
           style="fill:#333333;fill-opacity:1;stroke-width:0.0259515;stroke-linecap:round;paint-order:fill markers stroke"
           id="path2570-3-2-1"
           cx="-7.5788918"
           cy="5.1189961" />
        <path
           d="m -8.7754487,3.071054 a 2.3931155,2.36478 0 0 0 -1.1965578,2.047937 h 1.6751811 a 0.71793468,0.709434 0 0 1 0.3589676,-0.6143814 z m 2.3931159,0 -0.8375909,1.4335556 a 0.71793468,0.709434 0 0 1 0.3589676,0.6143814 h 1.6751807 A 2.3931155,2.36478 0 0 0 -6.3823328,3.071054 Z m -1.555525,2.6623184 -0.8375909,1.4335556 a 2.3931155,2.36478 0 0 0 2.3931159,0 L -7.2199237,5.7333724 a 0.71793468,0.709434 0 0 1 -0.3589671,0.095052 0.71793468,0.709434 0 0 1 -0.358967,-0.095052 z"
           style="fill:#333333;stroke-width:0.279871;stroke-linecap:round;paint-order:fill markers stroke"
           id="path2500-4-9-1-9-0" />
      </g>
    </g>
  </g>
</svg>
