<?xml version="1.0" encoding="UTF-8" standalone="no"?>
<svg
   xmlns:dc="http://purl.org/dc/elements/1.1/"
   xmlns:cc="http://creativecommons.org/ns#"
   xmlns:rdf="http://www.w3.org/1999/02/22-rdf-syntax-ns#"
   xmlns:svg="http://www.w3.org/2000/svg"
   xmlns="http://www.w3.org/2000/svg"
   xmlns:sodipodi="http://sodipodi.sourceforge.net/DTD/sodipodi-0.dtd"
   xmlns:inkscape="http://www.inkscape.org/namespaces/inkscape"
   sodipodi:docname="plc.svg"
   inkscape:version="1.0 (4035a4fb49, 2020-05-01)"
   id="svg8"
   version="1.1"
   viewBox="0 0 10.583333 10.583334"
   height="40"
   width="40">
  <title
     id="title873">plc</title>
  <defs
     id="defs2" />
  <sodipodi:namedview
     inkscape:window-maximized="1"
     inkscape:window-y="-9"
     inkscape:window-x="-9"
     inkscape:window-height="1001"
     inkscape:window-width="1920"
     units="px"
     showgrid="false"
     inkscape:document-rotation="0"
     inkscape:current-layer="layer1"
     inkscape:document-units="px"
     inkscape:cy="10.044636"
     inkscape:cx="27.13904"
     inkscape:zoom="11.2"
     inkscape:pageshadow="2"
     inkscape:pageopacity="0.0"
     borderopacity="1.0"
     bordercolor="#666666"
     pagecolor="#ffffff"
     id="base" />
  <metadata
     id="metadata5">
    <rdf:RDF>
      <cc:Work
         rdf:about="">
        <dc:format>image/svg+xml</dc:format>
        <dc:type
           rdf:resource="http://purl.org/dc/dcmitype/StillImage" />
        <dc:title>plc</dc:title>
        <dc:subject>
          <rdf:Bag>
            <rdf:li>tools controller plc automation</rdf:li>
          </rdf:Bag>
        </dc:subject>
      </cc:Work>
    </rdf:RDF>
  </metadata>
  <g
     id="layer1"
     inkscape:groupmode="layer"
     inkscape:label="Layer 1">
    <g
       transform="matrix(0.23285973,0,0,0.23285973,29.417259,49.089257)"
       id="g7600"
       style="display:inline;fill:#333333">
      <path
         style="display:inline;fill:#333333;fill-opacity:1;stroke:none;stroke-width:0.404079px;stroke-linecap:butt;stroke-linejoin:miter;stroke-opacity:1"
         d="m -124.34229,-165.59282 v -17.85011 l 41.427603,-0.23675 0.0456,15.88982 h -31.818503 c -1.05858,1.38163 -3.05839,1.99873 -5.57388,2.19701 z"
         id="path4676-7-3-8"
         inkscape:connector-curvature="0"
         sodipodi:nodetypes="ccccccc"
         inkscape:export-filename="C:\Users\marci\OneDrive\Dokumenty\Inkscape\bin\plc_blue.png"
         inkscape:export-xdpi="143.99911"
         inkscape:export-ydpi="143.99911" />
      <path
         style="display:inline;fill:#333333;fill-opacity:1;stroke:none;stroke-width:0.406636px;stroke-linecap:butt;stroke-linejoin:miter;stroke-opacity:1"
         d="m -87.047028,-210.57862 c -2.547432,0.19829 -4.573135,0.81565 -5.645147,2.19727 h -31.649775 v 20.91981 l 41.427609,-0.23622 v -22.88086 z m -33.206182,15.1886 h 3.80676 c 0.51938,0 0.9375,0.41813 0.9375,0.9375 v 3.80859 c 0,0.51938 -0.41812,0.9375 -0.9375,0.9375 h -3.80676 c -0.51936,0 -0.9375,-0.41812 -0.9375,-0.9375 v -3.80859 c 0,-0.51937 0.41814,-0.9375 0.9375,-0.9375 z m 8.87696,0 h 3.80676 c 0.51937,0 0.9375,0.41813 0.9375,0.9375 v 3.80859 c 0,0.51938 -0.41813,0.9375 -0.9375,0.9375 h -3.80676 c -0.51938,0 -0.9375,-0.41812 -0.9375,-0.9375 v -3.80859 c -1e-5,-0.51937 0.41812,-0.9375 0.9375,-0.9375 z m 9.05456,0 h 3.808596 c 0.519375,0 0.9375,0.41813 0.9375,0.9375 v 3.80859 c 0,0.51938 -0.418125,0.9375 -0.9375,0.9375 h -3.808596 c -0.51937,0 -0.9375,-0.41812 -0.9375,-0.9375 v -3.80859 c 0,-0.51937 0.41813,-0.9375 0.9375,-0.9375 z"
         id="path4676-1-1-6-8"
         inkscape:connector-curvature="0" />
    </g>
  </g>
</svg>
