<?xml version="1.0" encoding="UTF-8" standalone="no"?>
<svg
   xmlns:dc="http://purl.org/dc/elements/1.1/"
   xmlns:cc="http://creativecommons.org/ns#"
   xmlns:rdf="http://www.w3.org/1999/02/22-rdf-syntax-ns#"
   xmlns:svg="http://www.w3.org/2000/svg"
   xmlns="http://www.w3.org/2000/svg"
   xmlns:sodipodi="http://sodipodi.sourceforge.net/DTD/sodipodi-0.dtd"
   xmlns:inkscape="http://www.inkscape.org/namespaces/inkscape"
   width="40"
   height="40"
   viewBox="0 0 10.583333 10.583334"
   version="1.1"
   id="svg8"
   inkscape:version="1.0 (4035a4fb49, 2020-05-01)"
   sodipodi:docname="preferences.svg">
  <title
     id="title983">electric engine</title>
  <defs
     id="defs2">
    <marker
       inkscape:stockid="TriangleInS"
       orient="auto"
       refY="0.0"
       refX="0.0"
       id="TriangleInS"
       style="overflow:visible"
       inkscape:isstock="true">
      <path
         id="path1174"
         d="M 5.77,0.0 L -2.88,5.0 L -2.88,-5.0 L 5.77,0.0 z "
         style="fill-rule:evenodd;stroke:#333333;stroke-width:1pt;stroke-opacity:1;fill:#333333;fill-opacity:1"
         transform="scale(-0.2)" />
    </marker>
    <marker
       inkscape:stockid="Arrow2Mstart"
       orient="auto"
       refY="0.0"
       refX="0.0"
       id="Arrow2Mstart"
       style="overflow:visible"
       inkscape:isstock="true">
      <path
         id="path1059"
         style="fill-rule:evenodd;stroke-width:0.625;stroke-linejoin:round;stroke:#333333;stroke-opacity:1;fill:#333333;fill-opacity:1"
         d="M 8.7185878,4.0337352 L -2.2072895,0.016013256 L 8.7185884,-4.0017078 C 6.9730900,-1.6296469 6.9831476,1.6157441 8.7185878,4.0337352 z "
         transform="scale(0.6) translate(0,0)" />
    </marker>
    <marker
       inkscape:stockid="Arrow2Sstart"
       orient="auto"
       refY="0.0"
       refX="0.0"
       id="Arrow2Sstart"
       style="overflow:visible"
       inkscape:isstock="true">
      <path
         id="path1065"
         style="fill-rule:evenodd;stroke-width:0.625;stroke-linejoin:round;stroke:#333333;stroke-opacity:1;fill:#333333;fill-opacity:1"
         d="M 8.7185878,4.0337352 L -2.2072895,0.016013256 L 8.7185884,-4.0017078 C 6.9730900,-1.6296469 6.9831476,1.6157441 8.7185878,4.0337352 z "
         transform="scale(0.3) translate(-2.3,0)" />
    </marker>
    <marker
       inkscape:stockid="TriangleInM"
       orient="auto"
       refY="0"
       refX="0"
       id="TriangleInM"
       style="overflow:visible"
       inkscape:isstock="true">
      <path
         inkscape:connector-curvature="0"
         id="path4709"
         d="M 5.77,0 -2.88,5 V -5 Z"
         style="fill:#ffffff;fill-opacity:1;fill-rule:evenodd;stroke:#333333;stroke-width:1pt;stroke-opacity:1"
         transform="scale(-0.4)" />
    </marker>
  </defs>
  <sodipodi:namedview
     id="base"
     pagecolor="#ffffff"
     bordercolor="#666666"
     borderopacity="1.0"
     inkscape:pageopacity="0.0"
     inkscape:pageshadow="2"
     inkscape:zoom="7.919596"
     inkscape:cx="34.307464"
     inkscape:cy="44.598354"
     inkscape:document-units="px"
     inkscape:current-layer="layer1"
     inkscape:document-rotation="0"
     showgrid="false"
     units="px"
     inkscape:window-width="1920"
     inkscape:window-height="1001"
     inkscape:window-x="-9"
     inkscape:window-y="-9"
     inkscape:window-maximized="1" />
  <metadata
     id="metadata5">
    <rdf:RDF>
      <cc:Work
         rdf:about="">
        <dc:format>image/svg+xml</dc:format>
        <dc:type
           rdf:resource="http://purl.org/dc/dcmitype/StillImage" />
        <dc:title>electric engine</dc:title>
        <dc:subject>
          <rdf:Bag>
            <rdf:li>automation electric engine</rdf:li>
          </rdf:Bag>
        </dc:subject>
      </cc:Work>
    </rdf:RDF>
  </metadata>
  <g
     inkscape:label="Layer 1"
     inkscape:groupmode="layer"
     id="layer1">
    <g
       transform="matrix(0.25085881,0,0,0.25085881,23.542931,35.613795)"
       id="g5546"
       style="display:inline;fill:#000000">
      <path
         inkscape:connector-curvature="0"
         style="display:inline;opacity:1;fill:#000000;fill-opacity:1;stroke:none;stroke-width:1.86345;stroke-miterlimit:4;stroke-dasharray:none;stroke-opacity:1"
         d="m -100.10547,-115.01562 v 5 H -75.375 a 7.5,7.5 0 0 1 -0.4375,-2.5 7.5,7.5 0 0 1 0.439453,-2.5 z m 38.857423,0 a 7.5,7.5 0 0 1 0.435547,2.5 7.5,7.5 0 0 1 -0.4375,2.5 h 6.144531 v -5 z"
         transform="scale(0.9375)"
         id="rect5301-9-5" />
      <path
         inkscape:connector-curvature="0"
         style="display:inline;opacity:1;fill:#000000;fill-opacity:1;stroke:none;stroke-width:1.86345;stroke-miterlimit:4;stroke-dasharray:none;stroke-opacity:1"
         d="m -100.10547,-147.84766 v 5 h 18.443361 a 7.5,7.5 0 0 1 -0.4375,-2.5 7.5,7.5 0 0 1 0.4375,-2.5 z m 32.568361,0 a 7.5,7.5 0 0 1 0.4375,2.5 7.5,7.5 0 0 1 -0.439453,2.5 h 12.433593 v -5 z"
         transform="scale(0.9375)"
         id="rect5301-9-5-8" />
      <path
         inkscape:connector-curvature="0"
         style="display:inline;opacity:1;fill:#000000;fill-opacity:1;stroke:none;stroke-width:1.86345;stroke-miterlimit:4;stroke-dasharray:none;stroke-opacity:1"
         d="m -100.10547,-131.43164 v 5 h 5.160158 a 7.5,7.5 0 0 1 -0.4375,-2.5 7.5,7.5 0 0 1 0.4375,-2.5 z m 19.285158,0 a 7.5,7.5 0 0 1 0.4375,2.5 7.5,7.5 0 0 1 -0.439454,2.5 h 25.716797 v -5 z"
         transform="scale(0.9375)"
         id="rect5301-9-5-8-9" />
      <circle
         style="opacity:1;fill:#000000;fill-opacity:1;stroke:none;stroke-width:1.38061;stroke-miterlimit:4;stroke-dasharray:none;stroke-opacity:1"
         id="path5348-3-8"
         cx="-69.937157"
         cy="-136.26376"
         r="5.2734375" />
      <circle
         style="opacity:1;fill:#000000;fill-opacity:1;stroke:none;stroke-width:1.38061;stroke-miterlimit:4;stroke-dasharray:none;stroke-opacity:1"
         id="path5348-3-8-1"
         cx="-82.390564"
         cy="-120.87326"
         r="5.2734375" />
      <circle
         style="opacity:1;fill:#000000;fill-opacity:1;stroke:none;stroke-width:1.38061;stroke-miterlimit:4;stroke-dasharray:none;stroke-opacity:1"
         id="path5348-3-8-9"
         cx="-64.042091"
         cy="-105.4828"
         r="5.2734375" />
    </g>
  </g>
</svg>
