<?xml version="1.0" encoding="UTF-8" standalone="no"?>
<svg
   xmlns:dc="http://purl.org/dc/elements/1.1/"
   xmlns:cc="http://creativecommons.org/ns#"
   xmlns:rdf="http://www.w3.org/1999/02/22-rdf-syntax-ns#"
   xmlns:svg="http://www.w3.org/2000/svg"
   xmlns="http://www.w3.org/2000/svg"
   xmlns:sodipodi="http://sodipodi.sourceforge.net/DTD/sodipodi-0.dtd"
   xmlns:inkscape="http://www.inkscape.org/namespaces/inkscape"
   width="40"
   height="40"
   viewBox="0 0 10.583333 10.583334"
   version="1.1"
   id="svg8"
   inkscape:version="1.0 (4035a4fb49, 2020-05-01)"
   sodipodi:docname="repair.svg">
  <title
     id="title871">tools</title>
  <defs
     id="defs2" />
  <sodipodi:namedview
     id="base"
     pagecolor="#ffffff"
     bordercolor="#666666"
     borderopacity="1.0"
     inkscape:pageopacity="0.0"
     inkscape:pageshadow="2"
     inkscape:zoom="7.919596"
     inkscape:cx="7.8453186"
     inkscape:cy="15.511501"
     inkscape:document-units="px"
     inkscape:current-layer="layer1"
     inkscape:document-rotation="0"
     showgrid="false"
     units="px"
     inkscape:window-width="1920"
     inkscape:window-height="1001"
     inkscape:window-x="-9"
     inkscape:window-y="-9"
     inkscape:window-maximized="1" />
  <metadata
     id="metadata5">
    <rdf:RDF>
      <cc:Work
         rdf:about="">
        <dc:format>image/svg+xml</dc:format>
        <dc:type
           rdf:resource="http://purl.org/dc/dcmitype/StillImage" />
        <dc:title>tools</dc:title>
        <dc:subject>
          <rdf:Bag>
            <rdf:li>tools</rdf:li>
          </rdf:Bag>
        </dc:subject>
      </cc:Work>
    </rdf:RDF>
  </metadata>
  <g
     inkscape:label="Layer 1"
     inkscape:groupmode="layer"
     id="layer1">
    <path
       inkscape:connector-curvature="0"
       style="fill:#333333;fill-opacity:1;stroke:none;stroke-width:0.0889642;stroke-miterlimit:4;stroke-dasharray:none;stroke-dashoffset:0;stroke-opacity:1"
       d="M 6.3385309,4.2709933 C 6.1114158,4.0438782 5.7435316,4.0460826 5.5137366,4.2758775 L 2.214479,7.5751351 c -0.229795,0.229795 -0.2319194,0.5975993 -0.0048,0.8247144 L 2.3999995,8.5901743 C 2.6271146,8.8172895 2.9949189,8.815165 3.2247139,8.58537 L 6.5239715,5.2861124 C 6.7537665,5.0563175 6.7559709,4.6884332 6.5288557,4.4613181 Z M 3.0640148,7.7359144 a 0.3074663,0.3074663 0 0 1 1e-7,0.4347763 0.3074663,0.3074663 0 0 1 -0.4347768,3e-7 0.3074663,0.3074663 0 0 1 -7.98e-5,-0.4348569 0.3074663,0.3074663 0 0 1 0.4348565,8.03e-5 z"
       id="rect4757-2" />
    <path
       inkscape:connector-curvature="0"
       style="fill:#333333;fill-opacity:1;stroke:none;stroke-width:0.0579764px;stroke-linecap:butt;stroke-linejoin:miter;stroke-opacity:1"
       d="M 7.8246206,2.0674946 C 7.570876,1.9096982 7.2141692,1.9235759 6.7950094,2.0414716 5.9021518,2.4944009 5.9539981,2.7872098 5.8734911,3.1492312 5.8237702,3.932483 5.7805778,4.0082479 5.5629019,4.2259238 l -0.066217,1.077333 1.0772528,-0.066297 C 6.7916134,5.0192835 6.8673782,4.976091 7.65063,4.9263701 8.0126515,4.8458632 8.3054607,4.8977097 8.7583898,4.004852 8.8762854,3.5856921 8.8901631,3.2289853 8.7323668,2.9752407 L 7.7513572,3.9562502 C 7.5452546,3.9250827 7.3613264,3.8555894 7.1528392,3.6471022 6.9443523,3.4386153 6.8747787,3.2546063 6.8436111,3.0485041 Z"
       id="path4759-3" />
    <circle
       r="5.0254321"
       cy="5.291667"
       cx="5.291667"
       id="path2570-8"
       style="fill:none;fill-opacity:1;stroke:#333333;stroke-width:0.532471;stroke-linecap:round;stroke-miterlimit:4;stroke-dasharray:none;stroke-opacity:1;paint-order:fill markers stroke" />
    <rect
       transform="rotate(45)"
       style="fill:#333333;fill-opacity:1;fill-rule:nonzero;stroke:none;stroke-width:0.048955;stroke-linecap:round;stroke-linejoin:round;stroke-miterlimit:4;stroke-dasharray:none;stroke-dashoffset:0;stroke-opacity:1;paint-order:stroke fill markers"
       id="rect9189-67-4-9-2-8"
       width="0.66145837"
       height="2.6458335"
       x="5.5993857"
       y="-0.62667292" />
    <rect
       transform="rotate(45)"
       y="-0.62667292"
       x="9.0124493"
       height="2.6458335"
       width="0.66145837"
       id="rect9189-67-4-9-2-8-7"
       style="fill:#333333;fill-opacity:1;fill-rule:nonzero;stroke:none;stroke-width:0.0489551;stroke-linecap:round;stroke-linejoin:round;stroke-miterlimit:4;stroke-dasharray:none;stroke-dashoffset:0;stroke-opacity:1;paint-order:stroke fill markers" />
  </g>
</svg>
