<?xml version="1.0" encoding="UTF-8" standalone="no"?>
<svg
   xmlns:dc="http://purl.org/dc/elements/1.1/"
   xmlns:cc="http://creativecommons.org/ns#"
   xmlns:rdf="http://www.w3.org/1999/02/22-rdf-syntax-ns#"
   xmlns:svg="http://www.w3.org/2000/svg"
   xmlns="http://www.w3.org/2000/svg"
   xmlns:sodipodi="http://sodipodi.sourceforge.net/DTD/sodipodi-0.dtd"
   xmlns:inkscape="http://www.inkscape.org/namespaces/inkscape"
   width="40"
   height="40"
   viewBox="0 0 10.583333 10.583334"
   version="1.1"
   id="svg8"
   inkscape:version="1.0 (4035a4fb49, 2020-05-01)"
   sodipodi:docname="scale.svg">
  <title
     id="title887">scale</title>
  <defs
     id="defs2">
    <marker
       inkscape:stockid="TriangleInS"
       orient="auto"
       refY="0.0"
       refX="0.0"
       id="TriangleInS"
       style="overflow:visible"
       inkscape:isstock="true">
      <path
         id="path1174"
         d="M 5.77,0.0 L -2.88,5.0 L -2.88,-5.0 L 5.77,0.0 z "
         style="fill-rule:evenodd;stroke:#333333;stroke-width:1pt;stroke-opacity:1;fill:#333333;fill-opacity:1"
         transform="scale(-0.2)" />
    </marker>
    <marker
       inkscape:stockid="Arrow2Mstart"
       orient="auto"
       refY="0.0"
       refX="0.0"
       id="Arrow2Mstart"
       style="overflow:visible"
       inkscape:isstock="true">
      <path
         id="path1059"
         style="fill-rule:evenodd;stroke-width:0.625;stroke-linejoin:round;stroke:#333333;stroke-opacity:1;fill:#333333;fill-opacity:1"
         d="M 8.7185878,4.0337352 L -2.2072895,0.016013256 L 8.7185884,-4.0017078 C 6.9730900,-1.6296469 6.9831476,1.6157441 8.7185878,4.0337352 z "
         transform="scale(0.6) translate(0,0)" />
    </marker>
    <marker
       inkscape:stockid="Arrow2Sstart"
       orient="auto"
       refY="0.0"
       refX="0.0"
       id="Arrow2Sstart"
       style="overflow:visible"
       inkscape:isstock="true">
      <path
         id="path1065"
         style="fill-rule:evenodd;stroke-width:0.625;stroke-linejoin:round;stroke:#333333;stroke-opacity:1;fill:#333333;fill-opacity:1"
         d="M 8.7185878,4.0337352 L -2.2072895,0.016013256 L 8.7185884,-4.0017078 C 6.9730900,-1.6296469 6.9831476,1.6157441 8.7185878,4.0337352 z "
         transform="scale(0.3) translate(-2.3,0)" />
    </marker>
    <marker
       inkscape:stockid="TriangleInM"
       orient="auto"
       refY="0"
       refX="0"
       id="TriangleInM"
       style="overflow:visible"
       inkscape:isstock="true">
      <path
         inkscape:connector-curvature="0"
         id="path4709"
         d="M 5.77,0 -2.88,5 V -5 Z"
         style="fill:#ffffff;fill-opacity:1;fill-rule:evenodd;stroke:#333333;stroke-width:1pt;stroke-opacity:1"
         transform="scale(-0.4)" />
    </marker>
  </defs>
  <sodipodi:namedview
     id="base"
     pagecolor="#ffffff"
     bordercolor="#666666"
     borderopacity="1.0"
     inkscape:pageopacity="0.0"
     inkscape:pageshadow="2"
     inkscape:zoom="7.919596"
     inkscape:cx="11.867529"
     inkscape:cy="27.500314"
     inkscape:document-units="px"
     inkscape:current-layer="layer1"
     inkscape:document-rotation="0"
     showgrid="false"
     units="px"
     inkscape:window-width="1920"
     inkscape:window-height="1001"
     inkscape:window-x="-9"
     inkscape:window-y="-9"
     inkscape:window-maximized="1" />
  <metadata
     id="metadata5">
    <rdf:RDF>
      <cc:Work
         rdf:about="">
        <dc:format>image/svg+xml</dc:format>
        <dc:type
           rdf:resource="http://purl.org/dc/dcmitype/StillImage" />
        <dc:title>scale</dc:title>
        <dc:subject>
          <rdf:Bag>
            <rdf:li>scale libra</rdf:li>
          </rdf:Bag>
        </dc:subject>
      </cc:Work>
    </rdf:RDF>
  </metadata>
  <g
     inkscape:label="Layer 1"
     inkscape:groupmode="layer"
     id="layer1">
    <g
       style="fill:#333333;fill-opacity:1"
       id="g6817-1-9"
       transform="matrix(0.59411537,0,0,0.59412934,2112.9548,-304.38588)">
      <path
         sodipodi:nodetypes="ccccccccccccccccccc"
         d="m -3547.5652,512.66032 c -1.7113,2.90507 -4.9633,2.01877 -7.9314,1.83039 l -0.7623,0.64801 0.7877,0.56534 c 2.6831,-0.2155 5.7216,-0.83018 6.9908,1.03611 l -1.1443,7.30004 0.8771,1.18184 c -0.8126,0.40433 -1.0856,1.10884 -1.2584,1.86862 -2.3627,0.59304 -3.7973,1.53979 -4.6519,2.70735 h 7.0927 7.0919 c -0.8546,-1.16756 -2.2889,-2.11431 -4.6519,-2.70735 -0.1728,-0.75978 -0.4456,-1.46429 -1.2584,-1.86862 l 0.8771,-1.18184 -1.1435,-7.30004 c 1.2689,-1.86629 4.3077,-1.25161 6.9906,-1.03611 l 0.7876,-0.56534 -0.7622,-0.64801 c -2.9681,0.18838 -6.2199,1.07468 -7.9312,-1.83039 z"
         style="fill:#333333;fill-opacity:1;stroke:none;stroke-width:0.153148;stroke-linecap:butt;stroke-linejoin:miter;stroke-miterlimit:4;stroke-dasharray:none;stroke-opacity:1"
         id="path7706-3-4-5-5" />
      <g
         id="g6811-1-3"
         transform="translate(3.9367,-39.952083)"
         style="fill:#333333;fill-opacity:1">
        <path
           id="path7723-9-7-5-2"
           style="fill:#333333;fill-opacity:1;stroke:none;stroke-width:0.153148;stroke-linecap:round;stroke-miterlimit:4;stroke-dasharray:none;stroke-opacity:1;paint-order:fill markers stroke"
           d="m -3557.8525,556.38427 -2.5564,6.39702 c 0,1.42941 1.1586,2.58789 2.5879,2.58794 1.4295,1.1e-4 2.5889,-1.1584 2.5889,-2.58794 z m 0.013,2.00142 1.6251,3.96721 h -3.2102 z" />
        <path
           d="m -3545.2157,556.38427 -2.5564,6.39702 c 0,1.42941 1.1586,2.58789 2.5879,2.58794 1.4295,1.1e-4 2.5889,-1.1584 2.5889,-2.58794 z m 0.013,2.00142 1.6251,3.96721 h -3.2102 z"
           style="fill:#333333;fill-opacity:1;stroke:none;stroke-width:0.153148;stroke-linecap:round;stroke-miterlimit:4;stroke-dasharray:none;stroke-opacity:1;paint-order:fill markers stroke"
           id="path7723-2-3-4-8-7" />
      </g>
    </g>
  </g>
</svg>
