<?xml version="1.0" encoding="UTF-8" standalone="no"?>
<svg
   xmlns:dc="http://purl.org/dc/elements/1.1/"
   xmlns:cc="http://creativecommons.org/ns#"
   xmlns:rdf="http://www.w3.org/1999/02/22-rdf-syntax-ns#"
   xmlns:svg="http://www.w3.org/2000/svg"
   xmlns="http://www.w3.org/2000/svg"
   xmlns:sodipodi="http://sodipodi.sourceforge.net/DTD/sodipodi-0.dtd"
   xmlns:inkscape="http://www.inkscape.org/namespaces/inkscape"
   width="40"
   height="40"
   viewBox="0 0 10.583333 10.583334"
   version="1.1"
   id="svg8"
   inkscape:version="1.0 (4035a4fb49, 2020-05-01)"
   sodipodi:docname="shotgun.svg">
  <title
     id="title900">shotgun</title>
  <defs
     id="defs2">
    <marker
       inkscape:stockid="TriangleInS"
       orient="auto"
       refY="0.0"
       refX="0.0"
       id="TriangleInS"
       style="overflow:visible"
       inkscape:isstock="true">
      <path
         id="path1174"
         d="M 5.77,0.0 L -2.88,5.0 L -2.88,-5.0 L 5.77,0.0 z "
         style="fill-rule:evenodd;stroke:#333333;stroke-width:1pt;stroke-opacity:1;fill:#333333;fill-opacity:1"
         transform="scale(-0.2)" />
    </marker>
    <marker
       inkscape:stockid="Arrow2Mstart"
       orient="auto"
       refY="0.0"
       refX="0.0"
       id="Arrow2Mstart"
       style="overflow:visible"
       inkscape:isstock="true">
      <path
         id="path1059"
         style="fill-rule:evenodd;stroke-width:0.625;stroke-linejoin:round;stroke:#333333;stroke-opacity:1;fill:#333333;fill-opacity:1"
         d="M 8.7185878,4.0337352 L -2.2072895,0.016013256 L 8.7185884,-4.0017078 C 6.9730900,-1.6296469 6.9831476,1.6157441 8.7185878,4.0337352 z "
         transform="scale(0.6) translate(0,0)" />
    </marker>
    <marker
       inkscape:stockid="Arrow2Sstart"
       orient="auto"
       refY="0.0"
       refX="0.0"
       id="Arrow2Sstart"
       style="overflow:visible"
       inkscape:isstock="true">
      <path
         id="path1065"
         style="fill-rule:evenodd;stroke-width:0.625;stroke-linejoin:round;stroke:#333333;stroke-opacity:1;fill:#333333;fill-opacity:1"
         d="M 8.7185878,4.0337352 L -2.2072895,0.016013256 L 8.7185884,-4.0017078 C 6.9730900,-1.6296469 6.9831476,1.6157441 8.7185878,4.0337352 z "
         transform="scale(0.3) translate(-2.3,0)" />
    </marker>
    <marker
       inkscape:stockid="TriangleInM"
       orient="auto"
       refY="0"
       refX="0"
       id="TriangleInM"
       style="overflow:visible"
       inkscape:isstock="true">
      <path
         inkscape:connector-curvature="0"
         id="path4709"
         d="M 5.77,0 -2.88,5 V -5 Z"
         style="fill:#ffffff;fill-opacity:1;fill-rule:evenodd;stroke:#333333;stroke-width:1pt;stroke-opacity:1"
         transform="scale(-0.4)" />
    </marker>
  </defs>
  <sodipodi:namedview
     id="base"
     pagecolor="#ffffff"
     bordercolor="#666666"
     borderopacity="1.0"
     inkscape:pageopacity="0.0"
     inkscape:pageshadow="2"
     inkscape:zoom="3.959798"
     inkscape:cx="-10.138925"
     inkscape:cy="23.545245"
     inkscape:document-units="px"
     inkscape:current-layer="layer1"
     inkscape:document-rotation="0"
     showgrid="false"
     units="px"
     inkscape:window-width="1920"
     inkscape:window-height="1001"
     inkscape:window-x="-9"
     inkscape:window-y="-9"
     inkscape:window-maximized="1" />
  <metadata
     id="metadata5">
    <rdf:RDF>
      <cc:Work
         rdf:about="">
        <dc:format>image/svg+xml</dc:format>
        <dc:type
           rdf:resource="http://purl.org/dc/dcmitype/StillImage" />
        <dc:title>shotgun</dc:title>
        <dc:subject>
          <rdf:Bag>
            <rdf:li>shotgun gun weapon</rdf:li>
          </rdf:Bag>
        </dc:subject>
      </cc:Work>
    </rdf:RDF>
  </metadata>
  <g
     inkscape:label="Layer 1"
     inkscape:groupmode="layer"
     id="layer1">
    <g
       style="fill:#333333;fill-opacity:1"
       inkscape:export-ydpi="90"
       inkscape:export-xdpi="90"
       inkscape:export-filename="D:\WorkSpaces\ReactFront\my-app\public\Images\rifle.png"
       transform="matrix(0.48582514,0,0,0.48582514,225.33748,39.257887)"
       id="g4961">
      <g
         style="fill:#333333;fill-opacity:1"
         transform="matrix(0.74314187,-0.42905316,0.42905316,0.74314187,-88.53114,-210.53775)"
         id="g4923">
        <path
           sodipodi:nodetypes="cccccccccccc"
           inkscape:connector-curvature="0"
           id="path6576-6"
           d="m -449.39657,-76.297408 -4.77801,-5.3e-4 c -2.05606,0.201316 -2.03831,0.628752 -2.61423,0.958749 l -0.19798,4.158867 c 0.47657,0.47621 0.98004,1.784912 0.95958,2.572767 2.90514,0.919655 3.5793,-1.382302 4.31422,-2.495578 l 2.34378,-0.120656 z m -3.2897,4.846697 c -0.17448,0.965248 -1.19441,1.940496 -2.36072,2.053928 -0.0521,-0.464212 -0.1865,-1.226181 -0.77196,-2.011626 z"
           style="fill:#333333;fill-opacity:1;stroke:none;stroke-width:0.12264px;stroke-linecap:butt;stroke-linejoin:miter;stroke-opacity:1" />
        <path
           id="rect6651-8"
           d="m -448.49314,-76.360609 v 2.448979 l 1.58831,-3e-6 c 0.23217,-0.46513 0.6654,-0.775552 1.16377,-0.770961 l 6.31195,0.0582 c 0.46984,0.0043 0.87971,0.287192 1.11652,0.712764 l 3.3265,-2e-6 v -2.448978 z m 0,3.1564 -1e-5,1.624588 1.40755,3e-6 c -0.004,-0.04838 -0.006,-0.0972 -0.006,-0.146746 l 0.006,-1.413717 c 6e-5,-0.02171 0.002,-0.04264 0.003,-0.0641 z m 10.39003,0 c 0.004,0.04839 0.006,0.09747 0.006,0.147057 l -0.006,1.413432 c -4e-5,0.02167 -0.002,0.04271 -0.003,0.0641 h 2.35592 v -1.624592 z"
           style="opacity:1;fill:#333333;fill-opacity:1;fill-rule:nonzero;stroke:none;stroke-width:0.138822;stroke-linecap:round;stroke-miterlimit:4;stroke-dasharray:none;stroke-opacity:1;paint-order:markers fill stroke"
           inkscape:connector-curvature="0" />
        <rect
           transform="matrix(0.99996688,0.00813853,-0.00466497,0.99998912,0,0)"
           ry="1.1215854"
           rx="1.0917199"
           y="-70.419266"
           x="-446.59674"
           height="3.2627947"
           width="7.3336358"
           id="rect6584-7"
           style="opacity:1;fill:#333333;fill-opacity:1;fill-rule:nonzero;stroke:none;stroke-width:0.125468;stroke-linecap:round;stroke-miterlimit:4;stroke-dasharray:none;stroke-opacity:1;paint-order:markers fill stroke" />
      </g>
      <path
         style="fill:#333333;fill-opacity:1;stroke:none;stroke-width:0.082809px;stroke-linecap:butt;stroke-linejoin:miter;stroke-opacity:1"
         d="m -457.59297,-65.31181 c -0.28615,-0.602632 -0.93126,-1.378502 -1.52332,-1.513622 -0.79376,-0.961124 -0.96831,-2.436053 -1.65821,-3.053385 -0.19438,-0.01338 -1.2709,2.377681 -2.00982,3.431695 0.87693,1.731771 -0.032,2.604781 -0.0128,4.103088 0.0383,0.603321 0.13587,1.253001 1.85007,3.167399 l 3.67034,-2.386253 c -1.81139,-2.069227 -1.50426,-3.12068 -0.31623,-3.748922 z"
         id="path6465-1"
         inkscape:connector-curvature="0"
         sodipodi:nodetypes="cccccccc" />
    </g>
  </g>
</svg>
