<?xml version="1.0" encoding="UTF-8" standalone="no"?>
<svg
   xmlns:dc="http://purl.org/dc/elements/1.1/"
   xmlns:cc="http://creativecommons.org/ns#"
   xmlns:rdf="http://www.w3.org/1999/02/22-rdf-syntax-ns#"
   xmlns:svg="http://www.w3.org/2000/svg"
   xmlns="http://www.w3.org/2000/svg"
   xmlns:sodipodi="http://sodipodi.sourceforge.net/DTD/sodipodi-0.dtd"
   xmlns:inkscape="http://www.inkscape.org/namespaces/inkscape"
   width="40"
   height="40"
   viewBox="0 0 10.583333 10.583334"
   version="1.1"
   id="svg8"
   inkscape:version="1.0 (4035a4fb49, 2020-05-01)"
   sodipodi:docname="shovel.svg">
  <title
     id="title846">folder</title>
  <defs
     id="defs2" />
  <sodipodi:namedview
     id="base"
     pagecolor="#ffffff"
     bordercolor="#666666"
     borderopacity="1.0"
     inkscape:pageopacity="0.0"
     inkscape:pageshadow="2"
     inkscape:zoom="7.919596"
     inkscape:cx="21.551572"
     inkscape:cy="5.8531811"
     inkscape:document-units="px"
     inkscape:current-layer="layer1"
     inkscape:document-rotation="0"
     showgrid="false"
     units="px"
     inkscape:window-width="1920"
     inkscape:window-height="1001"
     inkscape:window-x="-9"
     inkscape:window-y="-9"
     inkscape:window-maximized="1" />
  <metadata
     id="metadata5">
    <rdf:RDF>
      <cc:Work
         rdf:about="">
        <dc:format>image/svg+xml</dc:format>
        <dc:type
           rdf:resource="http://purl.org/dc/dcmitype/StillImage" />
        <dc:title>folder</dc:title>
        <dc:subject>
          <rdf:Bag>
            <rdf:li>folder</rdf:li>
          </rdf:Bag>
        </dc:subject>
      </cc:Work>
    </rdf:RDF>
  </metadata>
  <g
     inkscape:label="Layer 1"
     inkscape:groupmode="layer"
     id="layer1">
    <g
       style="fill:#333333;fill-opacity:1"
       transform="matrix(0.4194559,0.41945483,-0.4194559,0.41945483,316.5457,396.8276)"
       id="g8913">
      <path
         inkscape:connector-curvature="0"
         style="fill:#333333;fill-opacity:1;stroke:none;stroke-width:0.0359635px;stroke-linecap:butt;stroke-linejoin:miter;stroke-opacity:1"
         d="m -837.74113,-83.160188 c 2.17578,-1.876373 4.14226,-4.173043 3.57284,-9.129393 l -2.16983,-0.554496 c -0.15887,2.615944 -0.83042,3.247699 -1.40301,3.5008 -0.5726,-0.253101 -1.24413,-0.884856 -1.40302,-3.5008 l -2.16983,0.554496 c -0.56942,4.95635 1.39698,7.25302 3.57276,9.129393 z"
         id="path8793" />
      <rect
         style="opacity:0.97;fill:#333333;fill-opacity:1;fill-rule:nonzero;stroke:none;stroke-width:0.153906;stroke-linecap:round;stroke-linejoin:round;stroke-miterlimit:4;stroke-dasharray:none;stroke-dashoffset:0;stroke-opacity:1;paint-order:stroke fill markers"
         id="rect8811"
         width="1.3916677"
         height="5.8593297"
         x="837.04529"
         y="94.347641"
         rx="0.19295247"
         ry="0.19181351"
         transform="scale(-1)" />
      <path
         style="fill:#333333;fill-opacity:1;stroke:none;stroke-width:0.0453155px;stroke-linecap:butt;stroke-linejoin:miter;stroke-opacity:1"
         d="m -837.16037,-100.60189 c 0.50205,-0.009 0.73452,-0.28732 0.49263,-0.50865 -0.6109,-0.44256 -0.59997,-0.82084 -0.28835,-1.05739 2.17871,-1.47992 1.98178,-3.25205 1.74633,-3.60488 -0.59429,-0.71841 -1.61731,-0.70518 -2.53139,-0.70487 -0.92823,-3.1e-4 -1.9371,-0.0135 -2.53138,0.70487 -0.23546,0.35283 -0.43238,2.12496 1.74633,3.60488 0.31162,0.23655 0.32255,0.61483 -0.28836,1.05739 -0.24188,0.22133 -0.009,0.49984 0.49263,0.50865 l 0.58078,-0.0119 z m -0.58078,-2.61901 c -0.94092,-0.0128 -1.66802,-0.45966 -1.90653,-1.89856 -0.0946,-0.46519 1.16385,-0.43101 1.90653,-0.44058 0.73702,-0.002 2.00114,-0.0246 1.90653,0.44058 -0.23851,1.4389 -0.96561,1.88577 -1.90653,1.89856 z"
         id="path8813"
         inkscape:connector-curvature="0" />
      <path
         style="fill:#333333;fill-opacity:1;stroke:none;stroke-width:0.0306535px;stroke-linecap:butt;stroke-linejoin:miter;stroke-opacity:1"
         d="m -837.74112,-90.39883 c 0.45738,-0.20217 1.00822,-0.760759 0.97098,-3.465705 l -0.97098,0.0019 -0.97103,-0.0019 c -0.0372,2.704946 0.51366,3.263535 0.97103,3.465705 z"
         id="path8850-0"
         inkscape:connector-curvature="0" />
    </g>
  </g>
</svg>
